#!OML:ASF H:\LiuWeirdWalks\Patient Classification 1\Patient 1\Session 1\male.ASF
:FULLY-SPECIFIED
:DEGREES
1301
root 0.516258 17.8675 -12.578 1.46695 185.243 4.75447
lowerback 2.21398 4.64884 4.94442
upperback -0.110105 6.20982 3.15948
thorax -1.17358 3.00688 0.309526
lowerneck -17.3295 1.39137 7.85019
upperneck 24.0829 1.72211 -10.4302
head 10.7709 -0.0529844 -4.94597
rclavicle -1.97045e-014 -1.27222e-014
rhumerus -12.0929 6.54851 -74.8121
rradius 34.3656
rwrist -17.2314
rhand -17.4652 -1.63018
rfingers 7.12502
rthumb 8.7864 -31.4273
lclavicle -1.97045e-014 -1.27222e-014
lhumerus -28.6391 2.682 71.3225
lradius 23.8644
lwrist -0.759
lhand -16.8412 -5.22396
lfingers 7.12502
lthumb 9.38855 24.547
rfemur 7.80315 -4.56683 32.4733
rtibia 14.4907
rfoot -13.5362 -20.6527
rtoes -7.24007
lfemur -32.7687 -1.8905 -12.0381
ltibia 31.5951
lfoot -7.44632 13.7084
ltoes -17.8502
1302
root 0.519199 17.8538 -12.7159 1.53535 185.283 4.84733
lowerback 2.18003 5.08551 5.22873
upperback -0.147816 6.80447 2.96251
thorax -1.11977 3.30536 -0.0539667
lowerneck -17.3864 1.31119 7.77021
upperneck 24.0217 1.59072 -10.2058
head 10.7422 -0.0838692 -4.86191
rclavicle -5.77469e-014 -3.81667e-014
rhumerus -11.1345 5.37103 -74.0196
rradius 34.5835
rwrist -17.064
rhand -17.3963 -1.6002
rfingers 7.12502
rthumb 8.8529 -31.3945
lclavicle -5.77469e-014 -3.81667e-014
lhumerus -29.2261 5.40244 68.4396
lradius 24.0938
lwrist -0.626575
lhand -17.3209 -4.66431
lfingers 7.12502
lthumb 8.92573 25.1269
rfemur 8.65043 -4.6802 32.5568
rtibia 13.592
rfoot -13.3389 -20.4619
rtoes -7.62191
lfemur -33.2463 -1.86164 -12.1735
ltibia 30.246
lfoot -7.41848 13.072
ltoes -18.3457
1303
root 0.521438 17.8395 -12.8556 1.60521 185.287 4.91515
lowerback 2.14652 5.51415 5.47467
upperback -0.179144 7.38716 2.76283
thorax -1.05495 3.59875 -0.395186
lowerneck -17.4243 1.23382 7.67621
upperneck 23.9298 1.46762 -9.98243
head 10.6998 -0.111979 -4.77325
rclavicle -4.90004e-014 -2.78299e-014
rhumerus -10.2187 4.15026 -73.2576
rradius 34.8149
rwrist -16.9063
rhand -17.3425 -1.54154
rfingers 7.12502
rthumb 8.90486 -31.3336
lclavicle -4.90004e-014 -2.78299e-014
lhumerus -29.9119 7.91425 65.5509
lradius 24.5341
lwrist -0.183776
lhand -17.7643 -3.99464
lfingers 7.12502
lthumb 8.49779 25.8144
rfemur 9.50491 -4.74923 32.6077
rtibia 12.7048
rfoot -13.1279 -20.2564
rtoes -8.03601
lfemur -33.6939 -1.86875 -12.3118
ltibia 28.9711
lfoot -7.46487 12.4392
ltoes -18.7975
1304
root 0.522176 17.8141 -12.9962 1.6803 185.271 4.97608
lowerback 2.11733 5.93048 5.69715
upperback -0.213813 7.95285 2.56786
thorax -0.991925 3.88373 -0.715793
lowerneck -17.437 1.17476 7.60499
upperneck 23.7784 1.37526 -9.80032
head 10.6349 -0.127805 -4.69693
rclavicle 1.21756e-015 7.95139e-016
rhumerus -9.34875 2.88066 -72.5255
rradius 35.0639
rwrist -16.7165
rhand -17.2875 -1.47376
rfingers 7.12502
rthumb 8.9579 -31.2636
lclavicle 1.21756e-015 7.95139e-016
lhumerus -30.7016 10.1285 62.7112
lradius 25.1905
lwrist 0.653831
lhand -18.2567 -3.13551
lfingers 7.12502
lthumb 8.0226 26.6922
rfemur 10.3508 -4.78512 32.6522
rtibia 11.8549
rfoot -12.9192 -20.0523
rtoes -8.4983
lfemur -34.1619 -1.91369 -12.4337
ltibia 27.8176
lfoot -7.56716 11.8103
ltoes -19.1778
1305
root 0.523087 17.7972 -13.1383 1.76476 185.228 5.03717
lowerback 2.09915 6.34264 5.91151
upperback -0.252749 8.51324 2.37654
thorax -0.933531 4.16583 -1.02629
lowerneck -17.4735 1.11499 7.48888
upperneck 23.659 1.28785 -9.59944
head 10.5871 -0.144988 -4.60756
rclavicle -3.05631e-015 3.33958e-014
rhumerus -8.52034 1.57904 -71.8174
rradius 35.3264
rwrist -16.5729
rhand -17.2287 -1.40968
rfingers 7.12502
rthumb 9.01463 -31.1971
lclavicle -3.05631e-015 3.33958e-014
lhumerus -31.5232 12.2159 59.8849
lradius 25.9265
lwrist 1.70203
lhand -18.7969 -2.25486
lfingers 7.12502
lthumb 7.50121 27.5921
rfemur 11.1591 -4.79902 32.6907
rtibia 11.0634
rfoot -12.6982 -19.8378
rtoes -9.0075
lfemur -34.5962 -1.96569 -12.534
ltibia 26.7735
lfoot -7.71318 11.1921
ltoes -19.5269
1306
root 0.523094 17.7793 -13.2815 1.85357 185.175 5.09362
lowerback 2.09242 6.74372 6.11667
upperback -0.294435 9.05936 2.18572
thorax -0.879143 4.44073 -1.32955
lowerneck -17.5226 1.05721 7.37101
upperneck 23.5132 1.20854 -9.41932
head 10.5335 -0.160984 -4.52385
rclavicle -8.4558e-014 7.95139e-016
rhumerus -7.72413 0.253693 -71.1432
rradius 35.5925
rwrist -16.4876
rhand -17.1837 -1.33678
rfingers 7.12502
rthumb 9.05808 -31.1223
lclavicle -8.4558e-014 7.95139e-016
lhumerus -32.372 14.2625 57.0384
lradius 26.6897
lwrist 2.85823
lhand -19.3553 -1.53062
lfingers 7.12502
lthumb 6.96222 28.3349
rfemur 11.9198 -4.79825 32.7231
rtibia 10.3709
rfoot -12.5006 -19.6331
rtoes -9.55199
lfemur -35.0228 -2.01758 -12.629
ltibia 25.8813
lfoot -7.88385 10.5765
ltoes -19.8536
1307
root 0.521613 17.7601 -13.4262 1.95505 185.123 5.12835
lowerback 2.08921 7.12886 6.29849
upperback -0.345272 9.58455 1.99098
thorax -0.83356 4.70516 -1.6225
lowerneck -17.5792 0.991497 7.19979
upperneck 23.4309 1.12269 -9.20724
head 10.5037 -0.183437 -4.42354
rclavicle -6.24184e-014 -1.94809e-014
rhumerus -6.95937 -1.09908 -70.5095
rradius 35.8575
rwrist -16.4524
rhand -17.1551 -1.25769
rfingers 7.12502
rthumb 9.08568 -31.042
lclavicle -6.24184e-014 -1.94809e-014
lhumerus -33.2637 16.213 54.1975
lradius 27.4959
lwrist 4.26867
lhand -19.9657 -0.967735
lfingers 7.12502
lthumb 6.37294 28.9164
rfemur 12.6882 -4.78422 32.728
rtibia 9.65238
rfoot -12.2388 -19.443
rtoes -10.1651
lfemur -35.4112 -2.0499 -12.7535
ltibia 25.0915
lfoot -8.03713 9.95243
ltoes -20.1557
1308
root 0.519339 17.7393 -13.5727 2.0488 185.065 5.17844
lowerback 2.09715 7.49809 6.48705
upperback -0.396802 10.0889 1.80334
thorax -0.790029 4.95881 -1.91054
lowerneck -17.6341 0.941122 7.05775
upperneck 23.3428 1.05767 -9.02724
head 10.4743 -0.19784 -4.33739
rclavicle -5.70015e-014 2.38542e-015
rhumerus -6.22242 -2.4468 -69.9274
rradius 36.1273
rwrist -16.4899
rhand -17.1467 -1.26039
rfingers 7.12502
rthumb 9.09379 -31.0443
lclavicle -5.70015e-014 2.38542e-015
lhumerus -34.199 18.0734 51.3463
lradius 28.333
lwrist 5.87471
lhand -20.5277 -0.643609
lfingers 7.12502
lthumb 5.83032 29.2562
rfemur 13.3892 -4.76631 32.7486
rtibia 9.0944
rfoot -12.0103 -19.275
rtoes -10.8219
lfemur -35.7625 -2.0224 -12.8792
ltibia 24.4695
lfoot -8.15466 9.29759
ltoes -20.521
1309
root 0.516778 17.7171 -13.7203 2.13879 185.001 5.21731
lowerback 2.11603 7.84931 6.64904
upperback -0.443617 10.5693 1.61984
thorax -0.748863 5.20073 -2.17941
lowerneck -17.7334 0.901376 6.91385
upperneck 23.3076 1.00975 -8.86484
head 10.4748 -0.208798 -4.25834
rclavicle 9.17391e-014 5.80451e-014
rhumerus -5.4919 -3.77754 -69.3916
rradius 36.4023
rwrist -16.5836
rhand -17.1553 -1.31343
rfingers 7.12502
rthumb 9.08553 -31.0977
lclavicle 9.17391e-014 5.80451e-014
lhumerus -35.1908 19.7931 48.5082
lradius 29.2277
lwrist 7.56372
lhand -20.9369 -0.456757
lfingers 7.12502
lthumb 5.43524 29.4535
rfemur 14.0045 -4.74194 32.7585
rtibia 8.72762
rfoot -11.8271 -19.1344
rtoes -11.5019
lfemur -36.0705 -1.95092 -13.0288
ltibia 24.024
lfoot -8.28223 8.65048
ltoes -20.8461
1310
root 0.514184 17.6935 -13.869 2.21943 184.965 5.25188
lowerback 2.13751 8.16739 6.78471
upperback -0.479602 11.0042 1.44855
thorax -0.703643 5.42044 -2.4202
lowerneck -17.8029 0.887133 6.83246
upperneck 23.2232 0.998943 -8.77651
head 10.4557 -0.205204 -4.20992
rclavicle 1.05766e-013 2.82274e-014
rhumerus -4.76186 -5.08892 -68.9033
rradius 36.7071
rwrist -16.7243
rhand -17.1416 -1.45679
rfingers 7.12502
rthumb 9.09868 -31.2405
lclavicle 1.05766e-013 2.82274e-014
lhumerus -36.2442 21.2927 45.7244
lradius 30.1952
lwrist 9.3631
lhand -21.2209 -0.299029
lfingers 7.12502
lthumb 5.16109 29.6181
rfemur 14.5177 -4.74835 32.7659
rtibia 8.58706
rfoot -11.7092 -19.0255
rtoes -12.2055
lfemur -36.33 -1.84465 -13.2076
ltibia 23.753
lfoot -8.36291 8.00224
ltoes -21.1538
